<?xml version="1.0" standalone="no"?>
<!DOCTYPE svg PUBLIC "-//W3C//DTD SVG 20010904//EN"
 "http://www.w3.org/TR/2001/REC-SVG-20010904/DTD/svg10.dtd">
<svg version="1.0" xmlns="http://www.w3.org/2000/svg"
 width="32.000000pt" height="32.000000pt" viewBox="0 0 32.000000 32.000000"
 preserveAspectRatio="xMidYMid meet">
<metadata>
Created by potrace 1.16, written by Peter Selinger 2001-2019
</metadata>
<g transform="translate(0.000000,32.000000) scale(0.100000,-0.100000)"
fill="#000000" stroke="none">
<path d="M0 255 c0 -53 3 -65 16 -65 9 0 14 -6 11 -12 -2 -7 -10 -12 -16 -10
-7 1 -11 -25 -11 -83 l0 -85 160 0 159 0 0 160 0 160 -70 0 c-44 0 -68 -4 -64
-10 3 -6 -5 -10 -19 -10 -14 0 -27 -4 -30 -9 -3 -4 6 -6 19 -3 19 3 25 0 25
-13 0 -13 6 -16 23 -12 20 6 21 5 4 -8 -16 -11 -17 -19 -9 -49 6 -20 7 -36 1
-36 -4 0 -12 -15 -17 -32 -6 -23 -15 -34 -30 -36 -12 -2 -23 0 -23 5 -6 36 -5
73 1 100 7 26 4 34 -13 47 -18 13 -19 14 -3 9 16 -5 17 -3 8 12 -8 15 -6 22 6
32 14 10 5 12 -55 13 l-73 0 0 -65z"/>
</g>
</svg>
